<svg width="160" height="160" viewBox="0 0 160 160" fill="none" xmlns="http://www.w3.org/2000/svg">
<circle cx="80" cy="80" r="80" fill="#660099"/>
<path fill-rule="evenodd" clip-rule="evenodd" d="M134.851 138.232C142.802 130.761 149.136 121.739 153.462 111.723C157.787 101.707 160.013 90.91 160 80C160 35.8154 124.185 0 80 0C35.8154 0 5.34089e-05 35.8154 5.34089e-05 80C-0.0125702 90.91 2.2127 101.707 6.53831 111.723C10.8639 121.739 17.1979 130.761 25.1488 138.232C39.9749 152.237 59.6049 160.027 80 160C100.395 160.027 120.025 152.237 134.851 138.232ZM31.959 127.688C37.7196 120.481 45.0299 114.664 53.3468 110.67C61.6637 106.676 70.7736 104.606 80 104.615C89.2264 104.606 98.3363 106.676 106.653 110.67C114.97 114.664 122.28 120.481 128.041 127.688C121.756 134.036 114.273 139.074 106.026 142.508C97.7797 145.942 88.9331 147.704 80 147.692C71.0669 147.704 62.2203 145.942 53.9736 142.508C45.7268 139.074 38.2439 134.036 31.959 127.688ZM110.769 55.3846C110.769 63.5451 107.527 71.3714 101.757 77.1417C95.9868 82.9121 88.1605 86.1538 80 86.1538C71.8395 86.1538 64.0132 82.9121 58.2429 77.1417C52.4725 71.3714 49.2308 63.5451 49.2308 55.3846C49.2308 47.2241 52.4725 39.3978 58.2429 33.6275C64.0132 27.8571 71.8395 24.6154 80 24.6154C88.1605 24.6154 95.9868 27.8571 101.757 33.6275C107.527 39.3978 110.769 47.2241 110.769 55.3846Z" fill="#F1F8FB"/>
</svg>
